<svg width="291" height="30" xmlns="http://www.w3.org/2000/svg"><g fill="#FFF"><path d="M229.42 1.36h8.49c.57 2.42 1.33 3 3.64 3.11h10v6.59h-13.48v10.16a2.38 2.38 0 0 0 2.24 1.51h11.33v6.24h-17.18c-3.33.57-5.11-2.12-5-5.42l-.04-22.19zm-32.73 3.11h24.25c5.38-.15 6.44 2.65 6.51 6.63v16.1c.12 1.06-.22 2.05-2 1.78h-24.82c-6.1-.15-7.62-15.19 1.44-15.31h15.11a1.34 1.34 0 0 0 0-2.65h-20.49V4.47zm21.1 15.3h-12.13c-1.89.23-1.55 3.15 0 3.08h12.13v-3.08zm35.58-15.41h8.68V29.1h-8.68zM262.05 0v2.88h-8.68V0M0 1.36h8.49c.56 2.42 1.44 3.15 3.63 3.11h10v6.59H8.6v10.16a2.38 2.38 0 0 0 2.24 1.51h11.32v6.24H5.07c-3.34.57-5.12-2.12-5-5.42L0 1.36zm23.41 27.61V6.66c.19-1.62.57-2.08 2.58-2.15h15.95v6.59h-7.95a1 1 0 0 0-1.44 1v16.81l-9.14.06zm19.82-24.5h24.25c5.38-.15 6.44 2.65 6.52 6.63v16.1c.11 1.06-.23 2.05-2 1.78H47.17c-6.1-.15-7.61-15.19 1.44-15.31h15.12a1.34 1.34 0 0 0 0-2.65h-20.5V4.47zm21.11 15.3H52.21c-1.89.23-1.55 3.15 0 3.08h12.13v-3.08zm11.02 9.2V4.47h26.52c4.93-.12 6.37 2.61 6.33 6.51v17.99h-8.86V12.46c-.08-.87-.19-1.36-1.25-1.4H85.74c-.94.15-1 .45-1.21 1.1v16.81h-9.17zm66.31-14.19h7.88v4.28h-7.88z"/><path d="M139.07 4.51h-23c-8 0-8.94 15.49 0 15.68h13.4c2.23 0 2 2.35 0 2.39h-19v6.39h25.31c7-.07 6.93-15.57 0-15.68h-15.1a1.12 1.12 0 1 1 0-2.24h18.49l-.1-6.54zm11.73 0v24.46h9.09v-16c.19-1.32.61-1.36 3.6-1.44 2.99-.08 3.56.08 3.64 1.44v16h10.08V13.18c0-1.29.26-1.59 3.71-1.67 3.41.12 3.75.19 3.83 1.67v15.79h9.32V11.33c-.38-4.67-1.25-6.45-6.52-6.79l-36.75-.03zm139.47-.08H269.4c-4.36 0-5.65 1.86-5.69 5.23v12.69c.34 4.81 1.94 6.59 5 6.71h21.56v-6.37H274.7a1.83 1.83 0 0 1-2.2-1.1v-9c.12-1.1.61-1.51 1.75-1.59h16l.02-6.57z"/></g></svg>