<?xml version="1.0" encoding="UTF-8"?>
<svg width="291px" height="30px" viewBox="0 0 291 30" version="1.1" xmlns="http://www.w3.org/2000/svg" xmlns:xlink="http://www.w3.org/1999/xlink">
    <!-- Generator: Sketch 46.2 (44496) - http://www.bohemiancoding.com/sketch -->
    <title>transmatic-white</title>
    <desc>Created with Sketch.</desc>
    <defs></defs>
    <g id="Page-1" stroke="none" stroke-width="1" fill="none" fill-rule="evenodd">
        <g id="transmatic-white" fill-rule="nonzero" fill="#FFFFFF">
            <path d="M229.42,1.36 L237.91,1.36 C238.48,3.78 239.24,4.36 241.55,4.47 L251.55,4.47 L251.55,11.06 L238.07,11.06 L238.07,21.22 C238.431001,22.1393767 239.322341,22.7402349 240.31,22.73 L251.64,22.73 L251.64,28.97 L234.46,28.97 C231.13,29.54 229.35,26.85 229.46,23.55 L229.42,1.36 Z" id="Shape"></path>
            <path d="M196.69,4.47 L220.94,4.47 C226.32,4.32 227.38,7.12 227.45,11.1 L227.45,27.2 C227.57,28.26 227.23,29.25 225.45,28.98 L200.63,28.98 C194.53,28.83 193.01,13.79 202.07,13.67 L217.18,13.67 C217.83543,13.5710981 218.320063,13.0078498 218.320063,12.345 C218.320063,11.6821502 217.83543,11.1189019 217.18,11.02 L196.69,11.02 L196.69,4.47 Z M217.79,19.77 L205.66,19.77 C203.77,20 204.11,22.92 205.66,22.85 L217.79,22.85 L217.79,19.77 Z" id="Shape"></path>
            <rect id="Rectangle-path" x="253.37" y="4.36" width="8.68" height="24.74"></rect>
            <polyline id="Shape" points="262.05 0 262.05 2.88 253.37 2.88 253.37 0"></polyline>
            <path d="M0,1.36 L8.49,1.36 C9.05,3.78 9.93,4.51 12.12,4.47 L22.12,4.47 L22.12,11.06 L8.6,11.06 L8.6,21.22 C8.96100147,22.1393767 9.85234073,22.7402349 10.84,22.73 L22.16,22.73 L22.16,28.97 L5.07,28.97 C1.73,29.54 -0.05,26.85 0.07,23.55 L0,1.36 Z" id="Shape"></path>
            <path d="M23.41,28.97 L23.41,6.66 C23.6,5.04 23.98,4.58 25.99,4.51 L41.94,4.51 L41.94,11.1 L33.99,11.1 C33.6632528,10.9374087 33.2738778,10.9657383 32.9741062,11.173913 C32.6743347,11.3820877 32.5117819,11.7370413 32.55,12.1 L32.55,28.91 L23.41,28.97 Z" id="Shape"></path>
            <path d="M43.23,4.47 L67.48,4.47 C72.86,4.32 73.92,7.12 74,11.1 L74,27.2 C74.11,28.26 73.77,29.25 72,28.98 L47.17,28.98 C41.07,28.83 39.56,13.79 48.61,13.67 L63.73,13.67 C64.3854299,13.5710981 64.8700625,13.0078498 64.8700625,12.345 C64.8700625,11.6821502 64.3854299,11.1189019 63.73,11.02 L43.23,11.02 L43.23,4.47 Z M64.34,19.77 L52.21,19.77 C50.32,20 50.66,22.92 52.21,22.85 L64.34,22.85 L64.34,19.77 Z" id="Shape"></path>
            <path d="M75.36,28.97 L75.36,4.47 L101.88,4.47 C106.81,4.35 108.25,7.08 108.21,10.98 L108.21,28.97 L99.35,28.97 L99.35,12.46 C99.27,11.59 99.16,11.1 98.1,11.06 L85.74,11.06 C84.8,11.21 84.74,11.51 84.53,12.16 L84.53,28.97 L75.36,28.97 Z" id="Shape"></path>
            <rect id="Rectangle-path" x="141.67" y="14.78" width="7.88" height="4.28"></rect>
            <path d="M139.07,4.51 L116.07,4.51 C108.07,4.51 107.13,20 116.07,20.19 L129.47,20.19 C131.7,20.19 131.47,22.54 129.47,22.58 L110.47,22.58 L110.47,28.97 L135.78,28.97 C142.78,28.9 142.71,13.4 135.78,13.29 L120.68,13.29 C120.061441,13.29 119.56,12.7885589 119.56,12.17 C119.56,11.5514411 120.061441,11.05 120.68,11.05 L139.17,11.05 L139.07,4.51 Z" id="Shape"></path>
            <path d="M150.8,4.51 L150.8,28.97 L159.89,28.97 L159.89,12.97 C160.08,11.65 160.5,11.61 163.49,11.53 C166.48,11.45 167.05,11.61 167.13,12.97 L167.13,28.97 L177.21,28.97 L177.21,13.18 C177.21,11.89 177.47,11.59 180.92,11.51 C184.33,11.63 184.67,11.7 184.75,13.18 L184.75,28.97 L194.07,28.97 L194.07,11.33 C193.69,6.66 192.82,4.88 187.55,4.54 L150.8,4.51 Z" id="Shape"></path>
            <path d="M290.27,4.43 L269.4,4.43 C265.04,4.43 263.75,6.29 263.71,9.66 L263.71,22.35 C264.05,27.16 265.65,28.94 268.71,29.06 L290.27,29.06 L290.27,22.69 L274.7,22.69 C273.792844,22.944304 272.84085,22.4683071 272.5,21.59 L272.5,12.59 C272.62,11.49 273.11,11.08 274.25,11 L290.25,11 L290.27,4.43 Z" id="Shape"></path>
        </g>
    </g>
</svg>