<svg id="Layer_1" data-name="Layer 1" xmlns="http://www.w3.org/2000/svg" viewBox="0 0 321.33 231.97"><defs><style>.cls-1{fill:#c2a56c;}.cls-2{fill:#fff;}</style></defs><title>transmatic-50</title><path class="cls-1" d="M158.87,223.05A66.82,66.82,0,0,0,169.28,241H290.59c9.55-11.8,15.61-27.58,15.61-47.66V103.66h-42V193c0,22.95-13.4,37.78-34.15,37.78-21,0-34.52-14.83-34.52-37.78V84.45c0-23.18,13.55-38.16,34.52-38.16,15.87,0,27.43,8.77,32,23.26h43.08C298.55,28.07,263.16,9,230,9h0c-36.86,0-76.53,23.39-76.53,74.71v43.35c9.37,17.1,11,35.77,11,53.83,0,15.91-1.23,29.68-5.62,42.16" transform="translate(-5.06 -9)"/><path class="cls-1" d="M81.37,230.74c-19.3,0-30.78-10.82-34.14-32.16H5.06C6.38,213,9.35,227.83,19.13,241H142.79C156.2,224.23,159,205.77,159,180.9c0-27-3.84-48.74-22.58-67.51-11-10.94-27.1-16.72-46.66-16.72-16.65,0-30.7,6.23-37.23,12.4L48,113.42V48.48H153.18V11.19H10.32V152.6H49.14c3.31-8.69,11.82-21.19,33.35-21.19,23.21,0,34.5,16.19,34.5,49.49,0,14.64-1.31,30.93-11,40.64-6.1,6.1-14.37,9.2-24.59,9.2" transform="translate(-5.06 -9)"/><polygon class="cls-2" points="241.12 88.55 241.12 79.87 248.64 67.16 246.04 67.16 239.99 77.61 233.93 67.16 231.27 67.16 238.79 79.93 238.79 88.55 241.12 88.55"/><polygon class="cls-2" points="264.87 69.26 264.87 67.15 251.82 67.15 251.82 88.55 265.02 88.55 265.02 86.44 254.11 86.44 254.11 78.8 263.76 78.8 263.76 76.72 254.11 76.72 254.11 69.26 264.87 69.26"/><path class="cls-2" d="M285.92,89.85h-8.1L281.88,79Zm-13.3,7.7H275l2.07-5.62h9.63l2.08,5.62h2.45L283,76h-2.26Z" transform="translate(-5.06 -9)"/><path class="cls-2" d="M307.1,82.64v.06c0,2.72-1.92,4.46-5.41,4.46h-4.61V78.27h4.86c3.2,0,5.16,1.55,5.16,4.37m-12.32-6.48V97.55h2.3V89.24h4.86l5.38,8.31h2.75l-5.75-8.77c3-.73,5.07-2.78,5.07-6.17v-.06a6.1,6.1,0,0,0-1.68-4.41,7.69,7.69,0,0,0-5.62-2Z" transform="translate(-5.06 -9)"/><path class="cls-2" d="M319.79,95.75a8.52,8.52,0,0,1-6-2.66l-1.43,1.74a10.49,10.49,0,0,0,7.43,3c3.82,0,6.63-2.42,6.63-5.84V92c0-2.84-1.59-4.58-5.93-6.21-4-1.46-5-2.54-5-4.4v-.06c0-1.83,1.59-3.33,4-3.33A7.65,7.65,0,0,1,324.65,80L326,78.26a9.32,9.32,0,0,0-6.42-2.41c-3.75,0-6.44,2.45-6.44,5.65v.07c0,3,1.74,4.61,6.17,6.26,3.88,1.38,4.74,2.51,4.74,4.28v0c0,2-1.72,3.61-4.28,3.61" transform="translate(-5.06 -9)"/></svg>